<svg width="301" height="168" viewBox="0 0 301 168" fill="none" xmlns="http://www.w3.org/2000/svg">
<circle cx="257.947" cy="42.7364" r="42.7364" fill="url(#paint0_radial_17_15)" fill-opacity="0.8"/>
<path d="M47.244 112.436C44.4182 116.61 41.2881 119.827 37.8536 122.087C34.4192 124.391 30.6587 125.544 26.5722 125.544C22.4422 125.544 18.7687 124.544 15.5516 122.544C12.3346 120.588 9.61744 117.805 7.40028 114.197C5.2266 110.545 3.55286 106.176 2.37907 101.09C1.24875 95.9597 0.683594 90.2646 0.683594 84.0044C0.683594 79.5701 1.14007 75.0271 2.05302 70.3754C2.96596 65.7237 4.29191 61.2242 6.03086 56.8768C7.81328 52.486 9.96523 48.3559 12.4867 44.4868C15.0082 40.5742 17.8775 37.1832 21.0945 34.3139C24.3116 31.4012 27.8547 29.0971 31.7238 27.4016C35.593 25.7061 39.7447 24.8584 44.1791 24.8584C46.5701 24.8584 48.809 25.2497 50.8957 26.0322C52.9825 26.7712 54.7649 27.8581 56.243 29.2927C57.7646 30.7274 58.9601 32.4663 59.8296 34.5096C60.6991 36.5528 61.1338 38.8569 61.1338 41.4219C61.1338 43.8564 60.7208 46.204 59.8948 48.4646C59.0688 50.7253 57.9385 52.8555 56.5039 54.8553C55.1127 56.8551 53.4824 58.681 51.6131 60.333C49.7437 61.985 47.7874 63.4196 45.7441 64.6369C43.7008 65.8106 41.6141 66.7236 39.4839 67.3757C37.3537 68.0278 35.3104 68.3539 33.3541 68.3539C31.7456 68.3539 30.3544 67.8539 29.1806 66.854C28.0503 65.8106 27.4851 64.1804 27.4851 61.9632C27.4851 61.485 27.5069 60.9633 27.5504 60.3982C27.6373 59.833 27.746 59.3113 27.8764 58.8331C28.0068 58.3549 28.159 57.9636 28.3329 57.6593C28.5068 57.3115 28.7241 57.1376 28.985 57.1376C29.2024 57.1376 29.398 57.2246 29.5719 57.3985C29.7893 57.5289 30.0501 57.6811 30.3544 57.855C30.7022 57.9854 31.1587 58.1375 31.7238 58.3114C32.289 58.4419 33.0715 58.5071 34.0714 58.5071C35.7669 58.5071 37.5711 58.0506 39.4839 57.1376C41.4402 56.2247 43.2444 55.0074 44.8964 53.4858C46.5484 51.9643 47.9178 50.2253 49.0046 48.269C50.0915 46.2692 50.6349 44.2042 50.6349 42.074C50.6349 41.2915 50.4827 40.4655 50.1784 39.596C49.9176 38.7265 49.4611 37.9223 48.809 37.1832C48.2004 36.4441 47.3744 35.8355 46.331 35.3573C45.2876 34.8356 44.0052 34.5748 42.4836 34.5748C39.7013 34.5748 37.0059 35.2486 34.3975 36.5963C31.789 37.944 29.3545 39.8134 27.0939 42.2044C24.8332 44.552 22.7465 47.3126 20.8337 50.4862C18.9643 53.6597 17.3558 57.0724 16.0081 60.7242C14.6604 64.376 13.617 68.18 12.878 72.1361C12.1389 76.0922 11.7694 80.0048 11.7694 83.874C11.7694 88.6996 12.1389 93.0469 12.878 96.9161C13.6605 100.742 14.7256 104.002 16.0733 106.698C17.421 109.393 19.0078 111.48 20.8337 112.958C22.703 114.393 24.7028 115.11 26.833 115.11C29.0937 115.11 31.1804 114.653 33.0933 113.74C35.0061 112.784 36.7233 111.523 38.2449 109.958C39.7665 108.393 41.0924 106.589 42.2227 104.546C43.3531 102.502 44.2877 100.394 45.0268 98.2203C45.8093 96.0466 46.3962 93.8947 46.7875 91.7645C47.1787 89.5908 47.3744 87.591 47.3744 85.7651C47.3744 85.0695 47.3309 84.287 47.244 83.4175C47.157 82.5046 47.1135 81.809 47.1135 81.3308C47.1135 80.6787 47.2222 80.1787 47.4396 79.8309C47.7004 79.4831 48.0265 79.2223 48.4177 79.0484C48.809 78.8745 49.2655 78.7658 49.7872 78.7223C50.3089 78.6789 50.8523 78.6571 51.4174 78.6571C52.0261 78.6571 52.7216 78.7876 53.5042 79.0484C54.2867 79.3092 55.0258 79.6788 55.7213 80.157C56.4604 80.5917 57.069 81.1134 57.5472 81.722C58.0689 82.3307 58.3298 83.0045 58.3298 83.7436C57.982 87.3519 57.7646 90.7863 57.6776 94.0468C57.5907 97.2639 57.5472 100.546 57.5472 103.894C57.5472 107.024 57.569 110.284 57.6124 113.675C57.6559 117.066 57.6776 120.805 57.6776 124.891C58.9384 124.674 60.1557 124.522 61.3294 124.435C62.5467 124.348 63.6988 124.261 64.7856 124.174C66.3507 124.087 67.3506 124.565 67.7853 125.609C68.2635 126.696 68.3287 127.913 67.9809 129.261C67.6766 130.608 67.068 131.847 66.155 132.978C65.2421 134.108 64.1987 134.695 63.0249 134.738C62.025 134.738 61.0686 134.76 60.1557 134.803C59.2862 134.847 58.3732 134.912 57.4168 134.999C57.2864 137.521 57.0908 140.064 56.8299 142.629C56.5691 145.194 56.1343 147.672 55.5257 150.063C54.9605 152.497 54.1998 154.758 53.2433 156.845C52.3304 158.975 51.1783 160.822 49.7872 162.388C48.396 163.953 46.7223 165.192 44.766 166.105C42.8096 167.017 40.5273 167.474 37.9188 167.474C35.6582 167.474 33.5932 167.061 31.7238 166.235C29.8979 165.452 28.3329 164.344 27.0287 162.909C25.7245 161.518 24.7246 159.866 24.029 157.953C23.3334 156.04 22.9856 153.954 22.9856 151.693C22.9856 148.302 23.6812 145.281 25.0724 142.629C26.4635 140.02 28.2894 137.716 30.55 135.716C32.8542 133.717 35.4843 132.021 38.4405 130.63C41.3967 129.239 44.4182 128.065 47.5048 127.109V125.804C47.5048 122.935 47.4613 120.392 47.3744 118.175C47.2874 115.958 47.244 114.045 47.244 112.436ZM38.1797 157.171C39.6578 157.171 40.9185 156.627 41.9619 155.54C43.0487 154.454 43.94 152.975 44.6355 151.106C45.3311 149.237 45.8745 147.085 46.2658 144.65C46.6571 142.259 46.9396 139.716 47.1135 137.021C42.6792 138.412 39.2665 140.325 36.8755 142.759C34.5279 145.194 33.3541 148.085 33.3541 151.432C33.3541 153.475 33.8106 154.932 34.7235 155.801C35.6799 156.714 36.832 157.171 38.1797 157.171Z" fill="url(#paint1_linear_17_15)"/>
<path d="M107.172 115.11C108.52 115.11 109.672 114.632 110.629 113.675C111.629 112.719 112.476 111.523 113.172 110.089C113.911 108.654 114.498 107.111 114.933 105.459C115.411 103.763 115.802 102.176 116.106 100.698C116.411 99.3072 116.845 98.3073 117.411 97.6986C118.019 97.0465 118.671 96.7205 119.367 96.7205C119.889 96.7205 120.41 96.8944 120.932 97.2422C121.497 97.5465 121.997 97.9595 122.432 98.4812C122.91 99.0028 123.28 99.5897 123.54 100.242C123.845 100.894 123.997 101.546 123.997 102.198C123.997 102.285 123.997 102.394 123.997 102.524C123.997 102.655 123.953 102.85 123.866 103.111C123.301 105.328 122.519 107.654 121.519 110.089C120.562 112.523 119.323 114.762 117.802 116.805C116.28 118.849 114.433 120.544 112.259 121.892C110.129 123.239 107.629 123.913 104.76 123.913C102.412 123.913 100.369 123.413 98.6299 122.413C96.891 121.414 95.5215 120.088 94.5216 118.436C93.1739 119.957 91.5437 121.24 89.6308 122.283C87.7615 123.37 85.566 123.913 83.0446 123.913C80.4361 123.913 78.132 123.392 76.1322 122.348C74.1759 121.305 72.5239 119.892 71.1762 118.11C69.8286 116.284 68.8069 114.153 68.1113 111.719C67.4592 109.241 67.1332 106.589 67.1332 103.763C67.1332 98.1986 68.0244 93.1991 69.8068 88.7648C71.5892 84.3305 73.9586 80.57 76.9148 77.4833C79.871 74.3532 83.2402 71.9622 87.0224 70.3102C90.8481 68.6582 94.8042 67.8322 98.8907 67.8322C100.717 67.8322 102.195 68.3321 103.325 69.332C104.455 70.3319 105.021 71.7013 105.021 73.4403C105.021 74.5706 104.89 75.3749 104.629 75.8531C104.412 76.2878 103.977 76.5052 103.325 76.5052C102.716 76.5052 102.086 76.4617 101.434 76.3748C100.782 76.2878 100.108 76.2443 99.4124 76.2443C96.891 76.2443 94.326 76.8095 91.7176 77.9398C89.1092 79.0267 86.7398 80.7221 84.6096 83.0262C82.5229 85.2869 80.8057 88.1779 79.458 91.6993C78.1103 95.1772 77.4365 99.3289 77.4365 104.154C77.4365 107.676 78.1103 110.393 79.458 112.306C80.8057 114.175 82.6533 115.11 85.0009 115.11C86.8268 115.11 88.3484 114.436 89.5656 113.088C90.7829 111.697 91.7611 110.067 92.5001 108.198V87.591C92.5001 86.9389 92.4566 86.3955 92.3697 85.9607C92.3262 85.526 92.261 85.1565 92.1741 84.8521C92.1306 84.5478 92.0871 84.287 92.0436 84.0696C92.0002 83.8088 91.9784 83.5697 91.9784 83.3523C91.9784 82.6567 92.3045 82.1133 92.9566 81.722C93.6522 81.2873 94.4782 81.0699 95.4346 81.0699C97.6517 81.0699 99.4124 81.6568 100.717 82.8306C102.021 83.9609 102.673 85.3304 102.673 86.9389V108.98C102.673 109.719 102.76 110.458 102.934 111.197C103.108 111.893 103.369 112.545 103.716 113.154C104.064 113.719 104.521 114.197 105.086 114.588C105.694 114.936 106.39 115.11 107.172 115.11Z" fill="url(#paint2_linear_17_15)"/>
<path d="M123.801 55.9638C122.714 55.9638 121.671 55.7465 120.671 55.3117C119.715 54.877 118.867 54.2901 118.128 53.5511C117.432 52.812 116.867 51.9643 116.432 51.0078C115.998 50.0079 115.78 48.9428 115.78 47.8125C115.78 46.6387 115.998 45.5519 116.432 44.552C116.867 43.5521 117.432 42.7044 118.128 42.0088C118.867 41.2697 119.715 40.7046 120.671 40.3133C121.671 39.8786 122.714 39.6612 123.801 39.6612C124.975 39.6612 126.062 39.8786 127.062 40.3133C128.062 40.7046 128.909 41.2697 129.605 42.0088C130.344 42.7044 130.909 43.5521 131.3 44.552C131.735 45.5519 131.953 46.6387 131.953 47.8125C131.953 48.9428 131.735 50.0079 131.3 51.0078C130.909 51.9643 130.344 52.812 129.605 53.5511C128.909 54.2901 128.062 54.877 127.062 55.3117C126.062 55.7465 124.975 55.9638 123.801 55.9638ZM126.866 108.98C126.866 109.284 126.888 109.784 126.931 110.48C126.975 111.132 127.105 111.806 127.323 112.501C127.54 113.197 127.888 113.806 128.366 114.327C128.844 114.849 129.518 115.11 130.387 115.11C131.692 115.11 132.822 114.632 133.778 113.675C134.778 112.719 135.626 111.523 136.322 110.089C137.061 108.654 137.669 107.111 138.148 105.459C138.626 103.763 139.017 102.176 139.321 100.698C139.582 99.3506 139.973 98.3725 140.495 97.7638C141.06 97.1552 141.647 96.8292 142.256 96.7857C142.908 96.6987 143.538 96.8509 144.147 97.2422C144.799 97.6334 145.364 98.1551 145.842 98.8072C146.364 99.4158 146.734 100.111 146.951 100.894C147.212 101.676 147.255 102.416 147.081 103.111C146.473 105.328 145.668 107.654 144.669 110.089C143.712 112.523 142.473 114.762 140.952 116.805C139.43 118.849 137.604 120.544 135.474 121.892C133.344 123.239 130.844 123.913 127.975 123.913C126.192 123.913 124.605 123.565 123.214 122.87C121.823 122.218 120.649 121.327 119.693 120.196C118.736 119.066 117.997 117.74 117.476 116.218C116.998 114.697 116.758 113.088 116.758 111.393V75.7227C116.758 74.4619 116.65 73.549 116.432 72.9838C116.258 72.4187 116.172 71.897 116.172 71.4188C116.172 70.7667 116.519 70.245 117.215 69.8537C117.91 69.419 118.736 69.2016 119.693 69.2016C121.91 69.2016 123.649 69.7885 124.91 70.9623C126.214 72.0926 126.866 73.462 126.866 75.0706V108.98Z" fill="url(#paint3_linear_17_15)"/>
<path d="M186.137 112.436C183.312 116.61 180.181 119.827 176.747 122.087C173.313 124.391 169.552 125.544 165.466 125.544C161.336 125.544 157.662 124.544 154.445 122.544C151.228 120.588 148.511 117.805 146.294 114.197C144.12 110.545 142.446 106.176 141.272 101.09C140.142 95.9597 139.577 90.2646 139.577 84.0044C139.577 79.5701 140.033 75.0271 140.946 70.3754C141.859 65.7237 143.185 61.2242 144.924 56.8768C146.707 52.486 148.859 48.3559 151.38 44.4868C153.902 40.5742 156.771 37.1832 159.988 34.3139C163.205 31.4012 166.748 29.0971 170.617 27.4016C174.486 25.7061 178.638 24.8584 183.072 24.8584C185.463 24.8584 187.702 25.2497 189.789 26.0322C191.876 26.7712 193.658 27.8581 195.136 29.2927C196.658 30.7274 197.853 32.4663 198.723 34.5096C199.592 36.5528 200.027 38.8569 200.027 41.4219C200.027 43.8564 199.614 46.204 198.788 48.4646C197.962 50.7253 196.832 52.8555 195.397 54.8553C194.006 56.8551 192.376 58.681 190.506 60.333C188.637 61.985 186.681 63.4196 184.637 64.6369C182.594 65.8106 180.507 66.7236 178.377 67.3757C176.247 68.0278 174.204 68.3539 172.247 68.3539C170.639 68.3539 169.248 67.8539 168.074 66.854C166.944 65.8106 166.378 64.1804 166.378 61.9632C166.378 61.485 166.4 60.9633 166.444 60.3982C166.531 59.833 166.639 59.3113 166.77 58.8331C166.9 58.3549 167.052 57.9636 167.226 57.6593C167.4 57.3115 167.617 57.1376 167.878 57.1376C168.096 57.1376 168.291 57.2246 168.465 57.3985C168.683 57.5289 168.943 57.6811 169.248 57.855C169.596 57.9854 170.052 58.1375 170.617 58.3114C171.182 58.4419 171.965 58.5071 172.965 58.5071C174.66 58.5071 176.464 58.0506 178.377 57.1376C180.334 56.2247 182.138 55.0074 183.79 53.4858C185.442 51.9643 186.811 50.2253 187.898 48.269C188.985 46.2692 189.528 44.2042 189.528 42.074C189.528 41.2915 189.376 40.4655 189.072 39.596C188.811 38.7265 188.354 37.9223 187.702 37.1832C187.094 36.4441 186.268 35.8355 185.224 35.3573C184.181 34.8356 182.899 34.5748 181.377 34.5748C178.595 34.5748 175.899 35.2486 173.291 36.5963C170.682 37.944 168.248 39.8134 165.987 42.2044C163.727 44.552 161.64 47.3126 159.727 50.4862C157.858 53.6597 156.249 57.0724 154.901 60.7242C153.554 64.376 152.51 68.18 151.771 72.1361C151.032 76.0922 150.663 80.0048 150.663 83.874C150.663 88.6996 151.032 93.0469 151.771 96.9161C152.554 100.742 153.619 104.002 154.967 106.698C156.314 109.393 157.901 111.48 159.727 112.958C161.596 114.393 163.596 115.11 165.726 115.11C167.987 115.11 170.074 114.653 171.987 113.74C173.899 112.784 175.617 111.523 177.138 109.958C178.66 108.393 179.986 106.589 181.116 104.546C182.246 102.502 183.181 100.394 183.92 98.2203C184.703 96.0466 185.29 93.8947 185.681 91.7645C186.072 89.5908 186.268 87.591 186.268 85.7651C186.268 85.0695 186.224 84.287 186.137 83.4175C186.05 82.5046 186.007 81.809 186.007 81.3308C186.007 80.6787 186.116 80.1787 186.333 79.8309C186.594 79.4831 186.92 79.2223 187.311 79.0484C187.702 78.8745 188.159 78.7658 188.681 78.7223C189.202 78.6789 189.746 78.6571 190.311 78.6571C190.919 78.6571 191.615 78.7876 192.398 79.0484C193.18 79.3092 193.919 79.6788 194.615 80.157C195.354 80.5917 195.962 81.1134 196.441 81.722C196.962 82.3307 197.223 83.0045 197.223 83.7436C196.875 87.3519 196.658 90.7863 196.571 94.0468C196.484 97.2639 196.441 100.546 196.441 103.894C196.441 107.024 196.462 110.284 196.506 113.675C196.549 117.066 196.571 120.805 196.571 124.891C197.832 124.674 199.049 124.522 200.223 124.435C201.44 124.348 202.592 124.261 203.679 124.174C205.244 124.087 206.244 124.565 206.679 125.609C207.157 126.696 207.222 127.913 206.874 129.261C206.57 130.608 205.961 131.847 205.048 132.978C204.135 134.108 203.092 134.695 201.918 134.738C200.918 134.738 199.962 134.76 199.049 134.803C198.18 134.847 197.267 134.912 196.31 134.999C196.18 137.521 195.984 140.064 195.723 142.629C195.462 145.194 195.028 147.672 194.419 150.063C193.854 152.497 193.093 154.758 192.137 156.845C191.224 158.975 190.072 160.822 188.681 162.388C187.289 163.953 185.616 165.192 183.659 166.105C181.703 167.017 179.421 167.474 176.812 167.474C174.552 167.474 172.487 167.061 170.617 166.235C168.791 165.452 167.226 164.344 165.922 162.909C164.618 161.518 163.618 159.866 162.922 157.953C162.227 156.04 161.879 153.954 161.879 151.693C161.879 148.302 162.575 145.281 163.966 142.629C165.357 140.02 167.183 137.716 169.443 135.716C171.747 133.717 174.378 132.021 177.334 130.63C180.29 129.239 183.312 128.065 186.398 127.109V125.804C186.398 122.935 186.355 120.392 186.268 118.175C186.181 115.958 186.137 114.045 186.137 112.436ZM177.073 157.171C178.551 157.171 179.812 156.627 180.855 155.54C181.942 154.454 182.833 152.975 183.529 151.106C184.224 149.237 184.768 147.085 185.159 144.65C185.55 142.259 185.833 139.716 186.007 137.021C181.573 138.412 178.16 140.325 175.769 142.759C173.421 145.194 172.247 148.085 172.247 151.432C172.247 153.475 172.704 154.932 173.617 155.801C174.573 156.714 175.725 157.171 177.073 157.171Z" fill="url(#paint4_linear_17_15)"/>
<path d="M246.066 115.11C247.414 115.11 248.566 114.632 249.522 113.675C250.522 112.719 251.37 111.523 252.065 110.089C252.804 108.654 253.391 107.111 253.826 105.459C254.304 103.763 254.695 102.176 255 100.698C255.304 99.3072 255.739 98.3073 256.304 97.6986C256.913 97.0465 257.565 96.7205 258.26 96.7205C258.782 96.7205 259.304 96.8944 259.825 97.2422C260.39 97.5465 260.89 97.9595 261.325 98.4812C261.803 99.0028 262.173 99.5897 262.434 100.242C262.738 100.894 262.89 101.546 262.89 102.198C262.89 102.285 262.89 102.394 262.89 102.524C262.89 102.655 262.847 102.85 262.76 103.111C262.195 105.328 261.412 107.654 260.412 110.089C259.456 112.523 258.217 114.762 256.695 116.805C255.174 118.849 253.326 120.544 251.152 121.892C249.022 123.239 246.522 123.913 243.653 123.913C241.305 123.913 239.262 123.413 237.523 122.413C235.784 121.414 234.415 120.088 233.415 118.436C232.067 119.957 230.437 121.24 228.524 122.283C226.655 123.37 224.459 123.913 221.938 123.913C219.329 123.913 217.025 123.392 215.026 122.348C213.069 121.305 211.417 119.892 210.07 118.11C208.722 116.284 207.7 114.153 207.005 111.719C206.353 109.241 206.027 106.589 206.027 103.763C206.027 98.1986 206.918 93.1991 208.7 88.7648C210.483 84.3305 212.852 80.57 215.808 77.4833C218.764 74.3532 222.134 71.9622 225.916 70.3102C229.741 68.6582 233.698 67.8322 237.784 67.8322C239.61 67.8322 241.088 68.3321 242.218 69.332C243.349 70.3319 243.914 71.7013 243.914 73.4403C243.914 74.5706 243.783 75.3749 243.523 75.8531C243.305 76.2878 242.871 76.5052 242.218 76.5052C241.61 76.5052 240.979 76.4617 240.327 76.3748C239.675 76.2878 239.001 76.2443 238.306 76.2443C235.784 76.2443 233.219 76.8095 230.611 77.9398C228.002 79.0267 225.633 80.7221 223.503 83.0262C221.416 85.2869 219.699 88.1779 218.351 91.6993C217.004 95.1772 216.33 99.3289 216.33 104.154C216.33 107.676 217.004 110.393 218.351 112.306C219.699 114.175 221.547 115.11 223.894 115.11C225.72 115.11 227.242 114.436 228.459 113.088C229.676 111.697 230.654 110.067 231.393 108.198V87.591C231.393 86.9389 231.35 86.3955 231.263 85.9607C231.22 85.526 231.154 85.1565 231.067 84.8521C231.024 84.5478 230.98 84.287 230.937 84.0696C230.893 83.8088 230.872 83.5697 230.872 83.3523C230.872 82.6567 231.198 82.1133 231.85 81.722C232.545 81.2873 233.371 81.0699 234.328 81.0699C236.545 81.0699 238.306 81.6568 239.61 82.8306C240.914 83.9609 241.566 85.3304 241.566 86.9389V108.98C241.566 109.719 241.653 110.458 241.827 111.197C242.001 111.893 242.262 112.545 242.61 113.154C242.957 113.719 243.414 114.197 243.979 114.588C244.588 114.936 245.283 115.11 246.066 115.11Z" fill="url(#paint5_linear_17_15)"/>
<path d="M265.759 108.98C265.759 109.284 265.781 109.784 265.825 110.48C265.868 111.132 265.999 111.806 266.216 112.501C266.433 113.197 266.781 113.806 267.259 114.327C267.737 114.849 268.411 115.11 269.281 115.11C270.585 115.11 271.715 114.632 272.672 113.675C273.672 112.719 274.519 111.523 275.215 110.089C275.954 108.654 276.563 107.111 277.041 105.459C277.519 103.763 277.91 102.176 278.215 100.698C278.475 99.3506 278.867 98.3725 279.388 97.7638C279.954 97.1552 280.54 96.8292 281.149 96.7857C281.801 96.6987 282.432 96.8509 283.04 97.2422C283.692 97.6334 284.257 98.1551 284.736 98.8072C285.257 99.4158 285.627 100.111 285.844 100.894C286.105 101.676 286.149 102.416 285.975 103.111C285.366 105.328 284.562 107.654 283.562 110.089C282.605 112.523 281.366 114.762 279.845 116.805C278.323 118.849 276.497 120.544 274.367 121.892C272.237 123.239 269.737 123.913 266.868 123.913C265.086 123.913 263.499 123.565 262.108 122.87C260.716 122.218 259.543 121.327 258.586 120.196C257.63 119.066 256.891 117.74 256.369 116.218C255.891 114.697 255.652 113.088 255.652 111.393V75.7227C255.652 74.4619 255.543 73.549 255.326 72.9838C255.152 72.4187 255.065 71.897 255.065 71.4188C255.065 70.7667 255.413 70.245 256.108 69.8537C256.804 69.419 257.63 69.2016 258.586 69.2016C260.803 69.2016 262.542 69.7885 263.803 70.9623C265.107 72.0926 265.759 73.462 265.759 75.0706V108.98Z" fill="url(#paint6_linear_17_15)"/>
<path d="M246.814 62.3307C244.919 62.3307 243.171 61.8438 241.571 60.87C239.989 59.8962 238.719 58.6007 237.763 56.9834C236.824 55.3488 236.354 53.5577 236.354 51.6101V49.1582C236.354 48.9669 236.441 48.8713 236.615 48.8713H242.615C242.754 48.8713 242.823 48.9669 242.823 49.1582V51.6101C242.823 52.7752 243.215 53.7838 243.997 54.6359C244.78 55.4706 245.719 55.8879 246.814 55.8879C247.927 55.8879 248.875 55.4619 249.657 54.6098C250.44 53.7403 250.831 52.7404 250.831 51.6101C250.831 50.3059 249.979 49.1669 248.275 48.1931C247.997 48.0192 247.632 47.8105 247.179 47.567C246.745 47.3062 246.223 47.0106 245.614 46.6802C245.006 46.3498 244.415 46.0281 243.841 45.7151C243.267 45.3847 242.71 45.0716 242.171 44.776C240.224 43.6283 238.772 42.1937 237.815 40.4721C236.876 38.7332 236.407 36.7856 236.407 34.6293C236.407 32.6469 236.894 30.8557 237.867 29.2559C238.841 27.6735 240.111 26.4214 241.676 25.4998C243.258 24.5607 244.971 24.0912 246.814 24.0912C248.71 24.0912 250.449 24.5607 252.031 25.4998C253.614 26.4562 254.874 27.7256 255.813 29.3081C256.77 30.8905 257.248 32.6642 257.248 34.6293V39.0114C257.248 39.1505 257.178 39.2201 257.039 39.2201H251.04C250.901 39.2201 250.831 39.1505 250.831 39.0114L250.779 34.6293C250.779 33.3772 250.388 32.3599 249.605 31.5774C248.823 30.7949 247.892 30.4036 246.814 30.4036C245.719 30.4036 244.78 30.821 243.997 31.6557C243.215 32.4904 242.823 33.4816 242.823 34.6293C242.823 35.7944 243.067 36.7682 243.554 37.5507C244.058 38.3332 244.971 39.081 246.293 39.7939C246.432 39.8635 246.753 40.0374 247.258 40.3156C247.762 40.5939 248.318 40.9069 248.927 41.2547C249.553 41.5851 250.118 41.8894 250.623 42.1676C251.127 42.4284 251.431 42.585 251.536 42.6371C253.309 43.6283 254.709 44.8456 255.735 46.2889C256.778 47.7322 257.3 49.506 257.3 51.6101C257.3 53.6447 256.831 55.4706 255.892 57.0878C254.935 58.705 253.666 59.9831 252.083 60.9222C250.501 61.8612 248.744 62.3307 246.814 62.3307Z" fill="white" fill-opacity="0.85"/>
<path d="M270.786 62.3307C268.855 62.3307 267.116 61.8525 265.569 60.8961C264.004 59.9397 262.743 58.6528 261.787 57.0356C260.848 55.4184 260.378 53.6099 260.378 51.6101V34.6814C260.378 32.7338 260.856 30.9601 261.813 29.3602C262.752 27.743 264.012 26.4562 265.595 25.4998C267.177 24.526 268.908 24.0391 270.786 24.0391C272.751 24.0391 274.524 24.5086 276.107 25.4476C277.689 26.404 278.941 27.6822 279.863 29.282C280.802 30.8818 281.272 32.6816 281.272 34.6814V37.1333C281.272 37.2725 281.185 37.342 281.011 37.342H275.011C274.872 37.342 274.803 37.2725 274.803 37.1333V35.0988C274.803 33.7424 274.42 32.6208 273.655 31.7339C272.89 30.847 271.933 30.4036 270.786 30.4036C269.76 30.4036 268.847 30.8297 268.047 31.6817C267.247 32.5338 266.847 33.5337 266.847 34.6814V51.6101C266.847 52.7752 267.238 53.7838 268.021 54.6359C268.803 55.4706 269.725 55.8879 270.786 55.8879C271.933 55.8879 272.89 55.4793 273.655 54.662C274.42 53.8273 274.803 52.81 274.803 51.6101V48.9756H271.073C270.881 48.9756 270.786 48.8886 270.786 48.7147V42.7415C270.786 42.5676 270.881 42.4806 271.073 42.4806H281.063C281.202 42.4806 281.272 42.5676 281.272 42.7415V51.6101C281.272 53.6099 280.802 55.4184 279.863 57.0356C278.907 58.6528 277.646 59.9397 276.081 60.8961C274.516 61.8525 272.751 62.3307 270.786 62.3307Z" fill="white" fill-opacity="0.85"/>
<path d="M73.6465 128.938C79.1014 134.037 83.4653 136.222 90.0112 136.222C102.012 136.222 102.802 128.209 113.712 128.209C122.44 128.209 123.832 136.222 135.832 136.222C145.433 136.222 149.771 129.545 151.106 128.209" stroke="#095FAD" stroke-opacity="0.3" stroke-width="0.6" stroke-linecap="round"/>
<path d="M73.6465 134.28C79.1014 139.379 83.4653 141.564 90.0112 141.564C102.012 141.564 102.802 133.551 113.712 133.551C122.44 133.551 123.832 141.564 135.832 141.564C145.433 141.564 149.771 134.887 151.106 133.551" stroke="#0682F4" stroke-opacity="0.4" stroke-width="1.2" stroke-linecap="round"/>
<path d="M73.6465 142.9C78.9885 146.907 83.4653 149.578 90.0112 149.578C102.012 149.578 102.802 141.565 113.712 141.565C122.44 141.565 123.832 149.578 135.832 149.578C145.433 149.578 149.771 144.236 151.106 142.9" stroke="#0682F4" stroke-opacity="0.6" stroke-width="1.7" stroke-linecap="round"/>
<path d="M212.54 128.938C217.995 134.037 222.359 136.222 228.905 136.222C240.906 136.222 241.696 128.209 252.605 128.209C261.333 128.209 262.725 136.222 274.726 136.222C284.327 136.222 288.664 129.545 290 128.209" stroke="#095FAD" stroke-opacity="0.3" stroke-width="0.6" stroke-linecap="round"/>
<path d="M212.54 134.28C217.995 139.379 222.359 141.564 228.905 141.564C240.906 141.564 241.696 133.551 252.605 133.551C261.333 133.551 262.725 141.564 274.726 141.564C284.327 141.564 288.664 134.887 290 133.551" stroke="#0682F4" stroke-opacity="0.4" stroke-width="1.2" stroke-linecap="round"/>
<path d="M212.54 142.9C217.882 146.907 222.359 149.578 228.905 149.578C240.906 149.578 241.696 141.565 252.605 141.565C261.333 141.565 262.725 149.578 274.726 149.578C284.327 149.578 288.664 144.236 290 142.9" stroke="#0682F4" stroke-opacity="0.6" stroke-width="1.7" stroke-linecap="round"/>
<defs>
<radialGradient id="paint0_radial_17_15" cx="0" cy="0" r="1" gradientUnits="userSpaceOnUse" gradientTransform="translate(257.947 42.7364) rotate(90) scale(42.7364)">
<stop offset="0.442708" stop-color="#ED8627"/>
<stop offset="0.963542" stop-color="#F2DC0F" stop-opacity="0.28"/>
</radialGradient>
<linearGradient id="paint1_linear_17_15" x1="273.973" y1="50.7496" x2="-15.8329" y2="154.92" gradientUnits="userSpaceOnUse">
<stop stop-color="#C00D0D"/>
<stop offset="0.718385" stop-color="#720707"/>
</linearGradient>
<linearGradient id="paint2_linear_17_15" x1="273.973" y1="50.7496" x2="-15.8329" y2="154.92" gradientUnits="userSpaceOnUse">
<stop stop-color="#C00D0D"/>
<stop offset="0.718385" stop-color="#720707"/>
</linearGradient>
<linearGradient id="paint3_linear_17_15" x1="273.973" y1="50.7496" x2="-15.8329" y2="154.92" gradientUnits="userSpaceOnUse">
<stop stop-color="#C00D0D"/>
<stop offset="0.718385" stop-color="#720707"/>
</linearGradient>
<linearGradient id="paint4_linear_17_15" x1="273.973" y1="50.7496" x2="-15.8329" y2="154.92" gradientUnits="userSpaceOnUse">
<stop stop-color="#C00D0D"/>
<stop offset="0.718385" stop-color="#720707"/>
</linearGradient>
<linearGradient id="paint5_linear_17_15" x1="273.973" y1="50.7496" x2="-15.8329" y2="154.92" gradientUnits="userSpaceOnUse">
<stop stop-color="#C00D0D"/>
<stop offset="0.718385" stop-color="#720707"/>
</linearGradient>
<linearGradient id="paint6_linear_17_15" x1="273.973" y1="50.7496" x2="-15.8329" y2="154.92" gradientUnits="userSpaceOnUse">
<stop stop-color="#C00D0D"/>
<stop offset="0.718385" stop-color="#720707"/>
</linearGradient>
</defs>
</svg>
