<svg width="300" height="173" viewBox="0 0 300 173" fill="none" xmlns="http://www.w3.org/2000/svg">
<ellipse cx="257.264" cy="45.3087" rx="42.7364" ry="42.6437" fill="url(#paint0_radial_17_17)"/>
<path d="M46.5604 117.523C43.7346 121.687 40.6045 124.897 37.17 127.153C33.7356 129.452 29.9751 130.601 25.8886 130.601C21.7586 130.601 18.0851 129.604 14.868 127.608C11.651 125.656 8.93385 122.88 6.71669 119.279C4.543 115.636 2.86927 111.276 1.69548 106.201C0.565158 101.082 0 95.3991 0 89.1524C0 84.7277 0.456474 80.1946 1.36942 75.553C2.28237 70.9114 3.60832 66.4216 5.34727 62.0837C7.12969 57.7024 9.28164 53.5813 11.8031 49.7206C14.3246 45.8164 17.1939 42.4328 20.4109 39.5698C23.628 36.6634 27.1711 34.3643 31.0402 32.6725C34.9094 30.9807 39.0611 30.1348 43.4955 30.1348C45.8865 30.1348 48.1254 30.5252 50.2121 31.306C52.2989 32.0435 54.0813 33.1279 55.5594 34.5595C57.081 35.991 58.2765 37.7262 59.146 39.765C60.0155 41.8038 60.4502 44.1029 60.4502 46.6623C60.4502 49.0916 60.0372 51.4341 59.2112 53.6898C58.3852 55.9455 57.2549 58.0711 55.8203 60.0666C54.4291 62.062 52.7988 63.8839 50.9295 65.5324C49.0601 67.1808 47.1038 68.6123 45.0605 69.8269C43.0172 70.9982 40.9305 71.9091 38.8003 72.5598C36.6701 73.2105 34.6268 73.5359 32.6705 73.5359C31.062 73.5359 29.6708 73.037 28.497 72.0393C27.3667 70.9982 26.8015 69.3714 26.8015 67.1591C26.8015 66.6819 26.8233 66.1614 26.8668 65.5974C26.9537 65.0335 27.0624 64.5129 27.1928 64.0358C27.3232 63.5586 27.4754 63.1682 27.6493 62.8645C27.8232 62.5175 28.0406 62.344 28.3014 62.344C28.5188 62.344 28.7144 62.4307 28.8883 62.6042C29.1057 62.7344 29.3665 62.8862 29.6708 63.0597C30.0186 63.1899 30.4751 63.3417 31.0402 63.5152C31.6054 63.6454 32.3879 63.7104 33.3878 63.7104C35.0833 63.7104 36.8875 63.2549 38.8003 62.344C40.7566 61.433 42.5608 60.2184 44.2128 58.7001C45.8648 57.1818 47.2342 55.4466 48.321 53.4946C49.4079 51.4991 49.9513 49.4386 49.9513 47.313C49.9513 46.5322 49.7991 45.708 49.4948 44.8404C49.234 43.9728 48.7775 43.1703 48.1254 42.4328C47.5168 41.6954 46.6908 41.0881 45.6474 40.6109C44.604 40.0903 43.3216 39.8301 41.8 39.8301C39.0177 39.8301 36.3223 40.5024 33.7139 41.8472C31.1054 43.192 28.6709 45.0573 26.4103 47.4431C24.1497 49.7856 22.0629 52.5402 20.1501 55.7069C18.2807 58.8736 16.6722 62.2789 15.3245 65.9228C13.9768 69.5666 12.9334 73.3623 12.1944 77.3099C11.4553 81.2574 11.0858 85.1615 11.0858 89.0223C11.0858 93.8374 11.4553 98.1754 12.1944 102.036C12.9769 105.854 14.042 109.107 15.3897 111.796C16.7374 114.486 18.3242 116.568 20.1501 118.043C22.0194 119.475 24.0192 120.19 26.1494 120.19C28.4101 120.19 30.4968 119.735 32.4097 118.824C34.3225 117.87 36.0397 116.612 37.5613 115.05C39.0829 113.488 40.4088 111.688 41.5391 109.649C42.6695 107.61 43.6041 105.506 44.3432 103.338C45.1257 101.169 45.7126 99.0213 46.1039 96.8957C46.4951 94.7267 46.6908 92.7312 46.6908 90.9093C46.6908 90.2152 46.6473 89.4344 46.5604 88.5668C46.4734 87.6558 46.4299 86.9618 46.4299 86.4846C46.4299 85.8339 46.5386 85.3351 46.756 84.988C47.0168 84.641 47.3429 84.3807 47.7341 84.2072C48.1254 84.0337 48.5819 83.9252 49.1036 83.8818C49.6253 83.8385 50.1687 83.8168 50.7338 83.8168C51.3425 83.8168 52.038 83.9469 52.8206 84.2072C53.6031 84.4675 54.3422 84.8362 55.0377 85.3134C55.7768 85.7472 56.3854 86.2677 56.8636 86.875C57.3853 87.4823 57.6462 88.1547 57.6462 88.8922C57.2984 92.4927 57.081 95.9196 56.9941 99.1731C56.9071 102.383 56.8636 105.658 56.8636 108.999C56.8636 112.122 56.8854 115.375 56.9288 118.759C56.9723 122.142 56.9941 125.873 56.9941 129.951C58.2548 129.734 59.4721 129.582 60.6458 129.495C61.8631 129.409 63.0152 129.322 64.102 129.235C65.6671 129.148 66.667 129.625 67.1017 130.667C67.5799 131.751 67.6451 132.966 67.2973 134.31C66.993 135.655 66.3844 136.891 65.4714 138.019C64.5585 139.147 63.5151 139.733 62.3413 139.776C61.3414 139.776 60.385 139.798 59.4721 139.841C58.6026 139.885 57.6896 139.95 56.7332 140.036C56.6028 142.552 56.4072 145.09 56.1463 147.65C55.8855 150.209 55.4507 152.682 54.8421 155.067C54.2769 157.497 53.5162 159.752 52.5597 161.835C51.6468 163.96 50.4947 165.804 49.1036 167.365C47.7124 168.927 46.0387 170.163 44.0824 171.074C42.126 171.985 39.8437 172.441 37.2352 172.441C34.9746 172.441 32.9096 172.029 31.0402 171.205C29.2143 170.424 27.6493 169.318 26.3451 167.886C25.0409 166.498 24.041 164.849 23.3454 162.941C22.6498 161.032 22.302 158.95 22.302 156.694C22.302 153.311 22.9976 150.296 24.3888 147.65C25.7799 145.047 27.6058 142.748 29.8664 140.752C32.1706 138.757 34.8007 137.065 37.7569 135.677C40.7131 134.289 43.7346 133.117 46.8212 132.163V130.862C46.8212 127.999 46.7777 125.461 46.6908 123.249C46.6038 121.036 46.5604 119.128 46.5604 117.523ZM37.4961 162.16C38.9742 162.16 40.2349 161.618 41.2783 160.533C42.3651 159.449 43.2564 157.974 43.9519 156.109C44.6475 154.243 45.1909 152.096 45.5822 149.667C45.9735 147.281 46.256 144.743 46.4299 142.054C41.9956 143.442 38.5829 145.35 36.1919 147.78C33.8443 150.209 32.6705 153.094 32.6705 156.434C32.6705 158.473 33.127 159.926 34.0399 160.794C34.9963 161.704 36.1484 162.16 37.4961 162.16Z" fill="#EEE9E9"/>
<path d="M106.489 120.19C107.837 120.19 108.989 119.713 109.945 118.759C110.945 117.805 111.793 116.612 112.488 115.18C113.227 113.749 113.814 112.209 114.249 110.56C114.727 108.868 115.118 107.285 115.423 105.81C115.727 104.422 116.162 103.424 116.727 102.817C117.336 102.166 117.988 101.841 118.683 101.841C119.205 101.841 119.727 102.014 120.248 102.361C120.813 102.665 121.313 103.077 121.748 103.598C122.226 104.118 122.596 104.704 122.857 105.355C123.161 106.005 123.313 106.656 123.313 107.307C123.313 107.393 123.313 107.502 123.313 107.632C123.313 107.762 123.27 107.957 123.183 108.218C122.618 110.43 121.835 112.751 120.835 115.18C119.879 117.609 118.64 119.843 117.118 121.882C115.597 123.921 113.749 125.613 111.575 126.958C109.445 128.302 106.945 128.975 104.076 128.975C101.729 128.975 99.6852 128.476 97.9463 127.478C96.2073 126.48 94.8379 125.157 93.838 123.509C92.4903 125.027 90.8601 126.307 88.9472 127.348C87.0779 128.432 84.8824 128.975 82.361 128.975C79.7525 128.975 77.4484 128.454 75.4486 127.413C73.4923 126.372 71.8403 124.962 70.4926 123.184C69.145 121.362 68.1233 119.236 67.4277 116.807C66.7756 114.334 66.4496 111.688 66.4496 108.868C66.4496 103.316 67.3408 98.3272 69.1232 93.9025C70.9056 89.4778 73.275 85.7255 76.2312 82.6455C79.1874 79.5222 82.5566 77.1363 86.3388 75.4879C90.1645 73.8395 94.1206 73.0153 98.2071 73.0153C100.033 73.0153 101.511 73.5142 102.641 74.5119C103.772 75.5096 104.337 76.8761 104.337 78.6112C104.337 79.7391 104.207 80.5416 103.946 81.0188C103.728 81.4526 103.294 81.6695 102.641 81.6695C102.033 81.6695 101.402 81.6261 100.75 81.5394C100.098 81.4526 99.4244 81.4092 98.7288 81.4092C96.2073 81.4092 93.6424 81.9731 91.034 83.101C88.4256 84.1855 86.0562 85.8773 83.926 88.1764C81.8393 90.4321 80.1221 93.3169 78.7744 96.8306C77.4267 100.301 76.7529 104.444 76.7529 109.259C76.7529 112.773 77.4267 115.484 78.7744 117.392C80.1221 119.258 81.9697 120.19 84.3173 120.19C86.1432 120.19 87.6648 119.518 88.882 118.173C90.0993 116.785 91.0774 115.158 91.8165 113.293V92.7312C91.8165 92.0805 91.773 91.5383 91.6861 91.1045C91.6426 90.6707 91.5774 90.302 91.4904 89.9983C91.447 89.6947 91.4035 89.4344 91.36 89.2175C91.3166 88.9572 91.2948 88.7186 91.2948 88.5017C91.2948 87.8077 91.6209 87.2654 92.273 86.875C92.9686 86.4412 93.7946 86.2243 94.751 86.2243C96.9681 86.2243 98.7288 86.81 100.033 87.9812C101.337 89.1091 101.989 90.4755 101.989 92.0805V114.074C101.989 114.811 102.076 115.549 102.25 116.286C102.424 116.98 102.685 117.631 103.033 118.238C103.381 118.802 103.837 119.279 104.402 119.67C105.011 120.017 105.706 120.19 106.489 120.19Z" fill="#EEE9E9"/>
<path d="M123.118 61.1727C122.031 61.1727 120.987 60.9558 119.987 60.522C119.031 60.0882 118.183 59.5026 117.444 58.7652C116.749 58.0277 116.184 57.1818 115.749 56.2275C115.314 55.2297 115.097 54.167 115.097 53.0391C115.097 51.8678 115.314 50.7834 115.749 49.7856C116.184 48.7879 116.749 47.942 117.444 47.2479C118.183 46.5105 119.031 45.9466 119.987 45.5561C120.987 45.1223 122.031 44.9055 123.118 44.9055C124.291 44.9055 125.378 45.1223 126.378 45.5561C127.378 45.9466 128.226 46.5105 128.921 47.2479C129.66 47.942 130.226 48.7879 130.617 49.7856C131.052 50.7834 131.269 51.8678 131.269 53.0391C131.269 54.167 131.052 55.2297 130.617 56.2275C130.226 57.1818 129.66 58.0277 128.921 58.7652C128.226 59.5026 127.378 60.0882 126.378 60.522C125.378 60.9558 124.291 61.1727 123.118 61.1727ZM126.182 114.074C126.182 114.378 126.204 114.876 126.248 115.57C126.291 116.221 126.422 116.894 126.639 117.588C126.856 118.282 127.204 118.889 127.682 119.41C128.161 119.93 128.834 120.19 129.704 120.19C131.008 120.19 132.138 119.713 133.095 118.759C134.095 117.805 134.942 116.612 135.638 115.18C136.377 113.749 136.986 112.209 137.464 110.56C137.942 108.868 138.333 107.285 138.638 105.81C138.899 104.465 139.29 103.489 139.811 102.882C140.377 102.275 140.964 101.949 141.572 101.906C142.224 101.819 142.855 101.971 143.463 102.361C144.115 102.752 144.681 103.272 145.159 103.923C145.68 104.53 146.05 105.225 146.267 106.005C146.528 106.786 146.572 107.524 146.398 108.218C145.789 110.43 144.985 112.751 143.985 115.18C143.029 117.609 141.79 119.843 140.268 121.882C138.746 123.921 136.92 125.613 134.79 126.958C132.66 128.302 130.16 128.975 127.291 128.975C125.509 128.975 123.922 128.628 122.531 127.934C121.14 127.283 119.966 126.394 119.009 125.266C118.053 124.138 117.314 122.815 116.792 121.297C116.314 119.778 116.075 118.173 116.075 116.481V80.8887C116.075 79.6307 115.966 78.7197 115.749 78.1558C115.575 77.5918 115.488 77.0713 115.488 76.5941C115.488 75.9434 115.836 75.4229 116.531 75.0324C117.227 74.5986 118.053 74.3818 119.009 74.3818C121.226 74.3818 122.965 74.9674 124.226 76.1386C125.53 77.2665 126.182 78.6329 126.182 80.238V114.074Z" fill="#EEE9E9"/>
<path d="M185.454 117.523C182.628 121.687 179.498 124.897 176.063 127.153C172.629 129.452 168.868 130.601 164.782 130.601C160.652 130.601 156.978 129.604 153.761 127.608C150.544 125.656 147.827 122.88 145.61 119.279C143.436 115.636 141.763 111.276 140.589 106.201C139.458 101.082 138.893 95.3991 138.893 89.1524C138.893 84.7277 139.35 80.1946 140.263 75.553C141.176 70.9114 142.502 66.4216 144.241 62.0837C146.023 57.7024 148.175 53.5813 150.696 49.7206C153.218 45.8164 156.087 42.4328 159.304 39.5698C162.521 36.6634 166.064 34.3643 169.934 32.6725C173.803 30.9807 177.954 30.1348 182.389 30.1348C184.78 30.1348 187.019 30.5252 189.105 31.306C191.192 32.0435 192.975 33.1279 194.453 34.5595C195.974 35.991 197.17 37.7262 198.039 39.765C198.909 41.8038 199.344 44.1029 199.344 46.6623C199.344 49.0916 198.931 51.4341 198.105 53.6898C197.279 55.9455 196.148 58.0711 194.714 60.0666C193.322 62.062 191.692 63.8839 189.823 65.5324C187.953 67.1808 185.997 68.6123 183.954 69.8269C181.911 70.9982 179.824 71.9091 177.694 72.5598C175.563 73.2105 173.52 73.5359 171.564 73.5359C169.955 73.5359 168.564 73.037 167.39 72.0393C166.26 70.9982 165.695 69.3714 165.695 67.1591C165.695 66.6819 165.717 66.1614 165.76 65.5974C165.847 65.0335 165.956 64.5129 166.086 64.0358C166.217 63.5586 166.369 63.1682 166.543 62.8645C166.717 62.5175 166.934 62.344 167.195 62.344C167.412 62.344 167.608 62.4307 167.782 62.6042C167.999 62.7344 168.26 62.8862 168.564 63.0597C168.912 63.1899 169.368 63.3417 169.934 63.5152C170.499 63.6454 171.281 63.7104 172.281 63.7104C173.977 63.7104 175.781 63.2549 177.694 62.344C179.65 61.433 181.454 60.2184 183.106 58.7001C184.758 57.1818 186.128 55.4466 187.214 53.4946C188.301 51.4991 188.845 49.4386 188.845 47.313C188.845 46.5322 188.692 45.708 188.388 44.8404C188.127 43.9728 187.671 43.1703 187.019 42.4328C186.41 41.6954 185.584 41.0881 184.541 40.6109C183.497 40.0903 182.215 39.8301 180.693 39.8301C177.911 39.8301 175.216 40.5024 172.607 41.8472C169.999 43.192 167.564 45.0573 165.304 47.4431C163.043 49.7856 160.956 52.5402 159.043 55.7069C157.174 58.8736 155.565 62.2789 154.218 65.9228C152.87 69.5666 151.827 73.3623 151.088 77.3099C150.349 81.2574 149.979 85.1615 149.979 89.0223C149.979 93.8374 150.349 98.1754 151.088 102.036C151.87 105.854 152.935 109.107 154.283 111.796C155.631 114.486 157.218 116.568 159.043 118.043C160.913 119.475 162.913 120.19 165.043 120.19C167.303 120.19 169.39 119.735 171.303 118.824C173.216 117.87 174.933 116.612 176.455 115.05C177.976 113.488 179.302 111.688 180.432 109.649C181.563 107.61 182.497 105.506 183.237 103.338C184.019 101.169 184.606 99.0213 184.997 96.8957C185.388 94.7267 185.584 92.7312 185.584 90.9093C185.584 90.2152 185.541 89.4344 185.454 88.5668C185.367 87.6558 185.323 86.9618 185.323 86.4846C185.323 85.8339 185.432 85.3351 185.649 84.988C185.91 84.641 186.236 84.3807 186.627 84.2072C187.019 84.0337 187.475 83.9252 187.997 83.8818C188.519 83.8385 189.062 83.8168 189.627 83.8168C190.236 83.8168 190.931 83.9469 191.714 84.2072C192.496 84.4675 193.235 84.8362 193.931 85.3134C194.67 85.7472 195.279 86.2677 195.757 86.875C196.279 87.4823 196.539 88.1547 196.539 88.8922C196.192 92.4927 195.974 95.9196 195.887 99.1731C195.8 102.383 195.757 105.658 195.757 108.999C195.757 112.122 195.779 115.375 195.822 118.759C195.866 122.142 195.887 125.873 195.887 129.951C197.148 129.734 198.365 129.582 199.539 129.495C200.756 129.409 201.908 129.322 202.995 129.235C204.56 129.148 205.56 129.625 205.995 130.667C206.473 131.751 206.538 132.966 206.191 134.31C205.886 135.655 205.278 136.891 204.365 138.019C203.452 139.147 202.408 139.733 201.235 139.776C200.235 139.776 199.278 139.798 198.365 139.841C197.496 139.885 196.583 139.95 195.627 140.036C195.496 142.552 195.3 145.09 195.04 147.65C194.779 150.209 194.344 152.682 193.735 155.067C193.17 157.497 192.409 159.752 191.453 161.835C190.54 163.96 189.388 165.804 187.997 167.365C186.606 168.927 184.932 170.163 182.976 171.074C181.019 171.985 178.737 172.441 176.129 172.441C173.868 172.441 171.803 172.029 169.934 171.205C168.108 170.424 166.543 169.318 165.238 167.886C163.934 166.498 162.934 164.849 162.239 162.941C161.543 161.032 161.195 158.95 161.195 156.694C161.195 153.311 161.891 150.296 163.282 147.65C164.673 145.047 166.499 142.748 168.76 140.752C171.064 138.757 173.694 137.065 176.65 135.677C179.606 134.289 182.628 133.117 185.715 132.163V130.862C185.715 127.999 185.671 125.461 185.584 123.249C185.497 121.036 185.454 119.128 185.454 117.523ZM176.389 162.16C177.868 162.16 179.128 161.618 180.172 160.533C181.258 159.449 182.15 157.974 182.845 156.109C183.541 154.243 184.084 152.096 184.476 149.667C184.867 147.281 185.149 144.743 185.323 142.054C180.889 143.442 177.476 145.35 175.085 147.78C172.738 150.209 171.564 153.094 171.564 156.434C171.564 158.473 172.02 159.926 172.933 160.794C173.89 161.704 175.042 162.16 176.389 162.16Z" fill="#EEE9E9"/>
<path d="M245.382 120.19C246.73 120.19 247.882 119.713 248.838 118.759C249.838 117.805 250.686 116.612 251.382 115.18C252.121 113.749 252.708 112.209 253.142 110.56C253.62 108.868 254.012 107.285 254.316 105.81C254.62 104.422 255.055 103.424 255.62 102.817C256.229 102.166 256.881 101.841 257.577 101.841C258.098 101.841 258.62 102.014 259.142 102.361C259.707 102.665 260.207 103.077 260.641 103.598C261.12 104.118 261.489 104.704 261.75 105.355C262.054 106.005 262.207 106.656 262.207 107.307C262.207 107.393 262.207 107.502 262.207 107.632C262.207 107.762 262.163 107.957 262.076 108.218C261.511 110.43 260.728 112.751 259.729 115.18C258.772 117.609 257.533 119.843 256.012 121.882C254.49 123.921 252.642 125.613 250.469 126.958C248.338 128.302 245.839 128.975 242.969 128.975C240.622 128.975 238.579 128.476 236.84 127.478C235.101 126.48 233.731 125.157 232.731 123.509C231.384 125.027 229.753 126.307 227.841 127.348C225.971 128.432 223.776 128.975 221.254 128.975C218.646 128.975 216.342 128.454 214.342 127.413C212.386 126.372 210.734 124.962 209.386 123.184C208.038 121.362 207.017 119.236 206.321 116.807C205.669 114.334 205.343 111.688 205.343 108.868C205.343 103.316 206.234 98.3272 208.017 93.9025C209.799 89.4778 212.168 85.7255 215.124 82.6455C218.081 79.5222 221.45 77.1363 225.232 75.4879C229.058 73.8395 233.014 73.0153 237.1 73.0153C238.926 73.0153 240.404 73.5142 241.535 74.5119C242.665 75.5096 243.23 76.8761 243.23 78.6112C243.23 79.7391 243.1 80.5416 242.839 81.0188C242.622 81.4526 242.187 81.6695 241.535 81.6695C240.926 81.6695 240.296 81.6261 239.644 81.5394C238.992 81.4526 238.318 81.4092 237.622 81.4092C235.101 81.4092 232.536 81.9731 229.927 83.101C227.319 84.1855 224.95 85.8773 222.819 88.1764C220.733 90.4321 219.015 93.3169 217.668 96.8306C216.32 100.301 215.646 104.444 215.646 109.259C215.646 112.773 216.32 115.484 217.668 117.392C219.015 119.258 220.863 120.19 223.211 120.19C225.037 120.19 226.558 119.518 227.775 118.173C228.993 116.785 229.971 115.158 230.71 113.293V92.7312C230.71 92.0805 230.666 91.5383 230.579 91.1045C230.536 90.6707 230.471 90.302 230.384 89.9983C230.34 89.6947 230.297 89.4344 230.253 89.2175C230.21 88.9572 230.188 88.7186 230.188 88.5017C230.188 87.8077 230.514 87.2654 231.166 86.875C231.862 86.4412 232.688 86.2243 233.644 86.2243C235.861 86.2243 237.622 86.81 238.926 87.9812C240.231 89.1091 240.883 90.4755 240.883 92.0805V114.074C240.883 114.811 240.97 115.549 241.144 116.286C241.317 116.98 241.578 117.631 241.926 118.238C242.274 118.802 242.73 119.279 243.295 119.67C243.904 120.017 244.6 120.19 245.382 120.19Z" fill="#EEE9E9"/>
<path d="M265.076 114.074C265.076 114.378 265.098 114.876 265.141 115.57C265.184 116.221 265.315 116.894 265.532 117.588C265.75 118.282 266.097 118.889 266.576 119.41C267.054 119.93 267.728 120.19 268.597 120.19C269.901 120.19 271.032 119.713 271.988 118.759C272.988 117.805 273.836 116.612 274.531 115.18C275.27 113.749 275.879 112.209 276.357 110.56C276.835 108.868 277.227 107.285 277.531 105.81C277.792 104.465 278.183 103.489 278.705 102.882C279.27 102.275 279.857 101.949 280.466 101.906C281.118 101.819 281.748 101.971 282.357 102.361C283.009 102.752 283.574 103.272 284.052 103.923C284.574 104.53 284.943 105.225 285.161 106.005C285.422 106.786 285.465 107.524 285.291 108.218C284.682 110.43 283.878 112.751 282.878 115.18C281.922 117.609 280.683 119.843 279.161 121.882C277.64 123.921 275.814 125.613 273.684 126.958C271.553 128.302 269.054 128.975 266.184 128.975C264.402 128.975 262.815 128.628 261.424 127.934C260.033 127.283 258.859 126.394 257.903 125.266C256.946 124.138 256.207 122.815 255.685 121.297C255.207 119.778 254.968 118.173 254.968 116.481V80.8887C254.968 79.6307 254.859 78.7197 254.642 78.1558C254.468 77.5918 254.381 77.0713 254.381 76.5941C254.381 75.9434 254.729 75.4229 255.425 75.0324C256.12 74.5986 256.946 74.3818 257.903 74.3818C260.12 74.3818 261.859 74.9674 263.119 76.1386C264.424 77.2665 265.076 78.6329 265.076 80.238V114.074Z" fill="#EEE9E9"/>
<path d="M72.9629 133.989C78.4178 139.077 82.7817 141.257 89.3276 141.257C101.328 141.257 102.118 133.262 113.028 133.262C121.756 133.262 123.148 141.257 135.149 141.257C144.75 141.257 149.087 134.594 150.423 133.262" stroke="white" stroke-opacity="0.3" stroke-width="0.6" stroke-linecap="round"/>
<path d="M72.9629 139.319C78.4178 144.407 82.7817 146.588 89.3276 146.588C101.328 146.588 102.118 138.592 113.028 138.592C121.756 138.592 123.148 146.588 135.149 146.588C144.75 146.588 149.087 139.925 150.423 138.592" stroke="white" stroke-opacity="0.4" stroke-width="1.2" stroke-linecap="round"/>
<path d="M72.9629 147.92C78.3049 151.918 82.7817 154.583 89.3276 154.583C101.328 154.583 102.118 146.588 113.028 146.588C121.756 146.588 123.148 154.583 135.149 154.583C144.75 154.583 149.087 149.253 150.423 147.92" stroke="white" stroke-opacity="0.5" stroke-width="1.7" stroke-linecap="round"/>
<path d="M211.856 133.989C217.311 139.077 221.675 141.257 228.221 141.257C240.222 141.257 241.012 133.262 251.922 133.262C260.65 133.262 262.042 141.257 274.042 141.257C283.643 141.257 287.981 134.594 289.316 133.262" stroke="white" stroke-opacity="0.3" stroke-width="0.6" stroke-linecap="round"/>
<path d="M211.856 139.319C217.311 144.407 221.675 146.588 228.221 146.588C240.222 146.588 241.012 138.592 251.922 138.592C260.65 138.592 262.042 146.588 274.042 146.588C283.643 146.588 287.981 139.925 289.316 138.592" stroke="white" stroke-opacity="0.4" stroke-width="1.2" stroke-linecap="round"/>
<path d="M211.856 147.92C217.198 151.918 221.675 154.583 228.221 154.583C240.222 154.583 241.012 146.588 251.922 146.588C260.65 146.588 262.042 154.583 274.042 154.583C283.643 154.583 287.981 149.253 289.316 147.92" stroke="white" stroke-opacity="0.5" stroke-width="1.7" stroke-linecap="round"/>
<path d="M245.919 64.3103C243.991 64.3103 242.214 63.8151 240.587 62.8247C238.978 61.8343 237.687 60.5167 236.714 58.8719C235.759 57.2095 235.281 55.3878 235.281 53.407V50.9133C235.281 50.7188 235.37 50.6215 235.547 50.6215H241.648C241.79 50.6215 241.86 50.7188 241.86 50.9133V53.407C241.86 54.592 242.258 55.6177 243.054 56.4843C243.85 57.3333 244.805 57.7577 245.919 57.7577C247.051 57.7577 248.015 57.3244 248.811 56.4578C249.607 55.5735 250.005 54.5566 250.005 53.407C250.005 52.0806 249.138 50.9222 247.405 49.9318C247.122 49.7549 246.75 49.5427 246.291 49.2951C245.849 49.0298 245.318 48.7291 244.699 48.3931C244.08 48.0571 243.479 47.7299 242.895 47.4115C242.311 47.0755 241.745 46.7572 241.197 46.4565C239.216 45.2892 237.74 43.8302 236.767 42.0793C235.812 40.3107 235.334 38.3299 235.334 36.1368C235.334 34.1207 235.83 32.299 236.82 30.6719C237.81 29.0625 239.101 27.7892 240.693 26.8518C242.303 25.8968 244.045 25.4193 245.919 25.4193C247.847 25.4193 249.616 25.8968 251.225 26.8518C252.834 27.8245 254.117 29.1156 255.072 30.725C256.044 32.3344 256.531 34.1384 256.531 36.1368V40.5937C256.531 40.7352 256.46 40.8059 256.318 40.8059H250.217C250.075 40.8059 250.005 40.7352 250.005 40.5937L249.952 36.1368C249.952 34.8635 249.554 33.8289 248.758 33.033C247.962 32.2371 247.016 31.8392 245.919 31.8392C244.805 31.8392 243.85 32.2637 243.054 33.1126C242.258 33.9615 241.86 34.9696 241.86 36.1368C241.86 37.3218 242.108 38.3122 242.603 39.1081C243.116 39.9039 244.045 40.6644 245.389 41.3895C245.53 41.4603 245.857 41.6371 246.37 41.9201C246.883 42.2031 247.449 42.5214 248.068 42.8751C248.705 43.2112 249.28 43.5207 249.792 43.8036C250.305 44.0689 250.615 44.2281 250.721 44.2812C252.525 45.2892 253.949 46.5272 254.992 47.9952C256.053 49.4631 256.584 51.267 256.584 53.407C256.584 55.4762 256.106 57.3333 255.151 58.978C254.179 60.6228 252.887 61.9227 251.278 62.8777C249.669 63.8328 247.882 64.3103 245.919 64.3103Z" fill="white"/>
<path d="M270.299 64.3103C268.336 64.3103 266.567 63.8239 264.993 62.8512C263.402 61.8785 262.119 60.5698 261.147 58.925C260.192 57.2802 259.714 55.4409 259.714 53.407V36.1899C259.714 34.2091 260.201 32.4052 261.173 30.7781C262.128 29.1333 263.41 27.8245 265.02 26.8518C266.629 25.8614 268.389 25.3662 270.299 25.3662C272.298 25.3662 274.102 25.8437 275.711 26.7988C277.32 27.7715 278.594 29.0714 279.531 30.6985C280.486 32.3256 280.964 34.156 280.964 36.1899V38.6836C280.964 38.8251 280.875 38.8958 280.698 38.8958H274.597C274.455 38.8958 274.385 38.8251 274.385 38.6836V36.6144C274.385 35.2349 273.995 34.0941 273.217 33.1922C272.439 32.2902 271.466 31.8392 270.299 31.8392C269.256 31.8392 268.327 32.2725 267.514 33.1391C266.7 34.0057 266.293 35.0226 266.293 36.1899V53.407C266.293 54.592 266.691 55.6177 267.487 56.4843C268.283 57.3333 269.22 57.7577 270.299 57.7577C271.466 57.7577 272.439 57.3421 273.217 56.5109C273.995 55.6619 274.385 54.6273 274.385 53.407V50.7276H270.591C270.396 50.7276 270.299 50.6392 270.299 50.4623V44.3873C270.299 44.2104 270.396 44.122 270.591 44.122H280.751C280.893 44.122 280.964 44.2104 280.964 44.3873V53.407C280.964 55.4409 280.486 57.2802 279.531 58.925C278.558 60.5698 277.276 61.8785 275.684 62.8512C274.093 63.8239 272.298 64.3103 270.299 64.3103Z" fill="white"/>
<defs>
<radialGradient id="paint0_radial_17_17" cx="0" cy="0" r="1" gradientUnits="userSpaceOnUse" gradientTransform="translate(257.264 45.3087) rotate(90) scale(42.6437 42.7364)">
<stop offset="0.375" stop-color="#6F6F6F"/>
<stop offset="1" stop-color="#D9D9D9" stop-opacity="0.28"/>
</radialGradient>
</defs>
</svg>
